<?xml version="1.0" encoding="utf-8"?>
<!-- Generator: Adobe Illustrator 26.0.1, SVG Export Plug-In . SVG Version: 6.00 Build 0)  -->
<svg version="1.1" xmlns="http://www.w3.org/2000/svg" xmlns:xlink="http://www.w3.org/1999/xlink" x="0px" y="0px"
	 viewBox="0 0 731.25 677.44" style="enable-background:new 0 0 731.25 677.44;" xml:space="preserve">
<style type="text/css">
	.st0{fill:none;}
	.st1{fill:#1E1E1C;}
	.st2{font-family:'BarlowSemiCondensed-Light';}
	.st3{font-size:13.8482px;}
	.st4{fill:none;stroke:#95C11F;stroke-width:0.5;stroke-miterlimit:10;}
	.st5{fill:none;stroke:#95C11F;stroke-width:0.5;stroke-miterlimit:10;stroke-dasharray:0.8823,0.8823;}
	.st6{font-family:'BarlowSemiCondensed-Medium';}
	.st7{fill:#95C11F;}
	.st8{fill:#006633;}
	.st9{fill:#DEDDDD;}
	.st10{font-size:11.9892px;}
	.st11{fill:none;stroke:#95C11F;stroke-width:0.4834;stroke-miterlimit:10;}
	.st12{fill:none;stroke:#979392;stroke-width:0.5;stroke-linecap:round;stroke-linejoin:round;stroke-miterlimit:10;}
	.st13{fill:none;stroke:#1E1E1C;stroke-width:0.5;stroke-miterlimit:10;}
	.st14{font-size:10.5628px;}
	.st15{fill:none;stroke:#1E1E1C;stroke-width:0.5;stroke-linecap:round;stroke-linejoin:round;stroke-miterlimit:10;}
	.st16{fill:none;stroke:#1D1E1C;stroke-width:0.5;stroke-miterlimit:10;}
	.st17{fill:none;stroke:#95C11F;stroke-width:0.4811;stroke-miterlimit:10;}


        .bordes {
            fill: none;
            stroke: #000000;
            stroke-linecap: round;
            stroke-linejoin: round;
            stroke-miterlimit:5;
        }
        .llenos {
            fill: #ffffff;
            stroke: #000000;
            stroke-linecap: round;
            stroke-linejoin: round;
            stroke-miterlimit: 5;
        }

        @keyframes infla {
            0% {
                transform: scale(1);
            }
           100% {
                transform: scale(2);
           
            }
        }

        @keyframes mueve {
            0% {
                transform: translate(0, 0 px);
            }
            40%{
                transform: translate(0, 0);
            
            }
        }

        #siamang {
            transform-origin: center center;
            animation: infla 2s infinite alternate;

        }

        #hombros {
            transform-origin: center center;
            animation: mueve 2s infinite alternate;

            #siamang {animation-timing-function: ease-in;}
        }
</style>
<g id="comparacion_tamaño_general">
	<g>
		<g>
			<rect x="170.22" y="64.09" class="st0" width="378.73" height="33.86"/>
			<text transform="matrix(1 0 0 1 170.2201 75.856)" class="st1 st2 st3">El Siamang es el más grande de los gibones.</text>
		</g>
		<line id="linea" class="st4" x1="208.42" y1="292.72" x2="526.8" y2="292.72"/>
		
			<line id="linea_00000078751700427628852550000007853246181663720579_" class="st5" x1="208.42" y1="242.97" x2="527.01" y2="242.97"/>
		<g>
			<text transform="matrix(1 0 0 1 169.2465 143.4893)" class="st1 st2 st3">150 cm</text>
		</g>
		<g>
			<text transform="matrix(1 0 0 1 301.7308 187.0669)" class="st1 st6 st3">90 cm</text>
		</g>
		<g>
		</g>
		<g>
		</g>
		<g>
		</g>
		<g>
			<text transform="matrix(1 0 0 1 173.3041 243.5044)" class="st1 st2 st3">50 cm</text>
		</g>
		<g>
			<text transform="matrix(1 0 0 1 179.5912 292.7168)" class="st1 st2 st3">0 cm</text>
		</g>
		
			<line id="linea_00000100363895000644788190000015555161185042233528_" class="st5" x1="208.42" y1="193.23" x2="527.01" y2="193.23"/>
		
			<line id="linea_00000151507916909128995320000002674649282847742620_" class="st5" x1="208.42" y1="143.49" x2="527.01" y2="143.49"/>
		<g>
			<text transform="matrix(1 0 0 1 168.8314 193.3711)" class="st1 st2 st3">100 cm</text>
		</g>
		<path id="nomascus" class="st7" d="M498.32,244.95c0,0-0.46-0.91-1.24-0.98c-0.78-0.07-5.33,1.69-6.9,3.9
			c-1.56,2.21-2.86,5.79-4.62,7.09c-1.76,1.3-6.51,3.9-8.26,5.2c-1.76,1.3-7.09,3.9-7.74,5.01s-0.91,1.63-0.72,2.54
			c0.2,0.91-0.07,2.93,1.24,4.42c1.3,1.5,1.69,2.47,2.6,2.86c0.91,0.39,1.5,0.72,2.69,0.76c0.75,0.02,1.14,0.02,1.32,0.01
			c0.08,0,0.16-0.06,0.17-0.15l0,0c0.04-0.16-0.06-0.31-0.21-0.36l-0.46-0.12l-0.01-0.09c-0.02-0.15-0.13-0.28-0.28-0.33l-0.67-0.2
			c0,0-1.46-0.47-1.73-0.96c-0.27-0.49-0.84-1.51-0.84-1.51v-0.44c0-0.13-0.05-0.26-0.13-0.36l-0.34-0.41c0,0-0.35-1.09-0.52-1.38
			c-0.17-0.3-0.15-1.75,0-1.93c0.15-0.17,2.37-1.39,3.16-1.92s4.77-2.06,4.77-2.06s3.43-1.41,4.62-1.75
			c1.19-0.35,3.06-0.82,4.1-1.43c1.04-0.62,3.01-2.42,3.01-2.42l0.32-0.32c0,0-0.64,2.05-1.24,4.79c-0.59,2.74-1.06,6.3-1.73,7.51
			c-0.67,1.21-1.66,4.15-1.73,5.73s-0.22,2.27-0.22,2.27s-1.98,0.86-2.03,2.15c-0.05,1.28,0.84,3.14,0.62,4.13
			c-0.22,0.99-1.63,3.68-1.63,4.25c0,0.21,0.02,0.4,0.05,0.55c0.05,0.23,0.25,0.39,0.48,0.39h0.05l0.15,0.79
			c0.04,0.22,0.26,0.35,0.47,0.3l0,0l0.08,0.07c0.17,0.15,0.43,0.12,0.55-0.07l0.04-0.06c0,0,0.42,0.1,0.44-0.15
			c0.02-0.25,1.28-2.72,1.56-2.74s0.94,0.02,0.69,0.42c-0.25,0.4-0.89,1.09-0.89,1.09v0.06c0,0.2,0.16,0.36,0.36,0.36h0.2
			c0,0,0.77-0.62,1.19-1.21c0.42-0.59,1.26-1.7,1.19-2.08c-0.07-0.37-0.64-1.14-0.47-1.61c0.17-0.47,2.35-2.54,2.62-3.46
			s0.74-3.88,1.09-4.4c0.35-0.52,1.19-1.98,1.68-1.98c0.49,0,1.88-5.22,2.42-4.13c0.54,1.09,0.59,8.36,1.58,10.01
			s1.36,1.48,1.09,2.67s-2.2,3.36-2.87,4.79c-0.67,1.43-0.59,2.82-0.3,3.46c0.3,0.64,0.05,1.36,0.05,1.36s0.12,0.54,0.37,0.54
			s0.79-0.27,1.16-0.69c0.37-0.42,1.36-0.49,1.36-0.49s1.04-0.42,1.66-0.27s0.99,0.82,1.48,0.82c0.49,0,0.49,0,0.49,0
			s0.57,0.18,0.62,0.04c0.03-0.09,0.13-0.13,0.2-0.16c0.06-0.02,0.1-0.08,0.1-0.14v-0.17c0-0.02,0.01-0.04,0.02-0.06l0.39-0.37
			c0.1-0.09,0.09-0.25-0.02-0.33l-0.59-0.46c0,0-1.04-0.42-0.77-0.84c0.27-0.42,2.1-3.21,2.45-5.04c0.35-1.83,0.2-3.14,0.42-3.21
			s0.3-0.25,0.27-0.62c-0.02-0.37-0.25-1.83-0.47-3.43c-0.22-1.61-0.79-4.37-1.73-5.41c-0.94-1.04-1.43-1.21-1.43-1.21
			s1.48-2.15,2.59-3.9c1.11-1.75,1.36-3.19,1.53-3.93c0.17-0.74,0.89-2.69,0.89-2.69s0.47,1.31,0.89,2.57
			c0.42,1.26,1.68,5.83,2.57,7.12c0.89,1.28,1.61,2.15,2.25,2.99s1.66,1.53,2.05,2.59c0.4,1.06,0.94,1.88,0.82,3.09
			c-0.12,1.21,0.07,2.05,0.15,2.27c0.07,0.22-0.17,1.56-0.17,1.56l0.04,0.27c0.05,0.35,0.51,0.45,0.7,0.15l0,0l0.13-0.83
			c0.04-0.28,0.43-0.35,0.56-0.09c0.07,0.15,0.13,0.35,0.13,0.61c0,0.84-0.12,2.35-0.35,2.87c-0.22,0.52-0.52,0.54-0.52,0.54l0,0
			c-0.19-0.01-0.35,0.13-0.35,0.32v0.12l-0.41,0.48c-0.11,0.13-0.17,0.31-0.15,0.48l0,0c0.01,0.06,0.07,0.09,0.12,0.06l1.45-0.78
			c0,0,0.67,0.37,1.24,0.25s1.73-0.77,2.08-1.73c0.35-0.96,0.47-2.69,0.3-3.93s-0.42-2.69-1.16-4.4c-0.74-1.7-4.84-11.82-4.84-11.82
			s-0.3-1.84-0.74-4.58c0,0-1.11-5.41-1.85-6.82c-0.74-1.41-1.68-2.15-1.95-3.51s0.07-4.3-0.72-5.86s-1.75-2.45-3.61-2.72
			c-1.85-0.27-2.69-0.3-4.05,0.15c-1.36,0.44-2.74,1.06-3.46,1.73C498.62,244.69,498.32,244.95,498.32,244.95z"/>
		<path id="hylobates" class="st7" d="M427.88,240.17l0.12,0.24c0.13,0.25,0.04,0.56-0.2,0.71c-0.51,0.32-1.31,1-1.61,2.21
			c-0.44,1.82-1.42,7.24-0.89,10.26c0.53,3.02,0.98,3.56,0.44,5.07c-0.53,1.51-5.24,9.24-5.24,9.24s-2.67,4.71-2.31,7.11
			c0.36,2.4,0.09,4.18,1.24,5.51c1.16,1.33,2.58,1.96,3.02,1.33c0.38-0.54,0.66-2.84,0.72-3.45c0.01-0.1-0.01-0.19-0.06-0.28
			l-0.03-0.05c-0.09-0.17-0.33-0.2-0.47-0.07c-0.36,0.35-0.98,0.87-1.19,0.56c-0.31-0.44-0.71-1.64,0.31-2.93
			c1.02-1.29,6.49-6.84,6.49-6.84l0.1-0.14c0.19-0.27,0.61-0.14,0.61,0.19c0.01,1.35,0.06,3.61,0.27,4.57
			c0.31,1.42-0.58,4.58-1.02,6.22c-0.44,1.64-1.42,6.27-0.53,8c0.89,1.73,1.73,2.31,1.02,2.84c-0.71,0.53-1.6,1.16-1.24,1.87
			c0.36,0.71,0.53,1.11,1.24,1.07c0.71-0.04,2.04-0.58,3.33-0.4c1.29,0.18,3.56,0.8,3.56,0.13c0-0.67-1.11-2.13-1.11-2.53
			c0-0.4,1.33-8.93,1.38-11.2c0.04-2.27-0.27-4.13,0-4.53c0.17-0.26,1.07-1.75,1.67-2.76c0.28-0.47,0.94-0.53,1.3-0.12
			c0.8,0.9,1.99,2.36,2.36,3.46c0.58,1.69,1.24,6.22,2.18,8.04s2.04,4.09,2.27,5.56c0.22,1.47-0.31,2.13,0.49,2.53
			c0.8,0.4,1.64-0.09,3.24,0.84c1.6,0.93,2.98,1.24,4.04,0.76s1.56-0.89,1.38-1.42c-0.18-0.53-2.98-2.71-2.98-2.71
			s0.13-4.62-0.18-6.18s-3.51-7.29-3.69-8.4s-0.36-6.58-0.93-8.4c-0.29-0.91-0.65-1.82-0.94-2.51c-0.12-0.28,0.23-0.51,0.44-0.3
			c0.76,0.74,1.79,1.87,2.41,3.08c1.07,2.09,4.36,7.82,4.62,9.16c0.27,1.33,0.98,3.56,0.18,4.18s-1.38,0.76-1.87,0.71
			c-0.49-0.04-0.53,0.4-0.53,0.4s0.44,2.18,1.29,2.67c0.84,0.49,2.71-0.93,3.47-2.31s1.47-4.4,1.24-6.18c-0.22-1.78-2.53-5.6-3.33-8
			c-0.8-2.4-1.64-10-2-11.24c-0.36-1.24-0.44-5.07-1.64-8.49s-2.44-6.5-4.22-7.18c-1.78-0.68-3.47-0.59-3.91-1.21
			c-0.44-0.62-0.31-4.04-0.89-4.71s-3.07-2.76-5.16-3.02c-2.09-0.27-4.36-0.22-6.18,0.89c-1.82,1.11-3.29,3.15-3.29,4.18
			c0,2.86,0.82,3.66,1.07,3.84C427.81,240.06,427.85,240.11,427.88,240.17z"/>
		<path id="hoolock" class="st7" d="M391.19,214.59c0,0-2.04-3.85-7.09-4.45c-5.05-0.6-7.33,0.72-9.38,1.68s-3.25,1.92-2.89,2.77
			c0.36,0.84,0.83,1.8-0.06,2.28c-0.9,0.48-2.7,0.6-3.66,2.16c-0.96,1.56-4.81,10.22-4.81,12.5c0,2.28,1.2,4.81,0,8.18
			c-1.2,3.37-5.29,7.93-8.18,13.59c-2.89,5.65-4.93,6.73-5.53,8.54c-0.6,1.8-1.2,8.9-0.48,10.58s2.64,4.09,3.97,4.81
			c1.32,0.72,2.16,0.72,2.16,0s-0.36-1.92-0.36-1.92s1.2-1.68,0.84-2.52c-0.36-0.84-1.8-3.73-1.56-4.93s4.93-7.45,4.93-7.45
			l6.97-7.57c0,0-2.52,6.25-4.69,9.38c-2.16,3.13-3.01,6.73-4.33,8.66c-1.32,1.92-2.6,10.56-2.6,10.56s-2.91-0.07-4.33-0.81
			c-1.42-0.74-4.54-1.22-4.74-0.74s0,1.29,0,1.29s-1.02-0.34-1.22,0.27c-0.2,0.61,0,1.15,0.41,1.29c0.41,0.14,3.25,0.61,5.28,1.22
			c2.03,0.61,7.11,2.71,8.2,2.78c1.08,0.07,3.86,1.22,4.13,0c0.27-1.22,1.9-6.77,2.3-8.2c0.41-1.42,4-8.2,5.28-9.55
			c1.29-1.35,3.18-4.27,4.47-4.33c1.29-0.07,2.03,0.61,3.73,1.56s5.15,1.49,6.23,5.01c1.08,3.52,1.22,7.72,0.88,9.28
			c-0.34,1.56-0.88,2.91-0.41,4.61c0.47,1.69,2.24,3.59,2.03,4.2c-0.2,0.61-3.18,0.74-3.18,0.74s-4.33-0.2-4.54,0.41
			c-0.2,0.61-0.2,0.61-0.2,0.61s14.36,2.84,15.04,2.37c0.68-0.47,0.07-2.03,0-2.44c-0.07-0.41,2.78-6.5,2.57-8.26
			c-0.2-1.76-4.47-10.77-4.47-13s1.22-9.55,0.88-10.84c-0.34-1.29-2.17-3.45-2.44-3.45c-0.27,0,0.88-1.42,0.88-1.42
			s5.82,6.1,8.53,8.26c2.71,2.17,7.65,4.74,9.62,6.84c1.96,2.1,2.51,2.71,2.03,3.66s-1.35,1.56-2.44,1.35s-1.35-1.49-1.9-1.22
			s-0.61,0.47-1.22,0.14c-0.61-0.34-1.02-0.68-1.08,0s0.41,1.96,0.47,2.24s-1.08,0.47-0.68,1.02c0.41,0.54,0.54,1.22,1.56,1.76
			c1.02,0.54,2.44,1.83,3.12,1.69c0.68-0.14,5.01-2.17,5.01-2.17s1.96-0.68,2.03-1.69c0.07-1.02,0.81-7.04,0.34-8.33
			c-0.47-1.29-8.2-11.45-8.2-11.45l-0.41-1.69c0,0-0.27-0.34-1.22-2.3s-1.56-2.71-2.71-4.13s-0.95-4.13-0.81-5.42
			c0.14-1.29,1.42-3.32,1.42-4.33c0-1.02-1.35-12.94-3.05-14.97c-1.69-2.03-3.05-3.39-4.27-4.81c-1.22-1.42-2.51-2.44-3.86-2.71
			S391.19,214.59,391.19,214.59z"/>
		<path id="siamang" class="st8" d="M322.18,200.35c0.75,0.1,1.08,0.43,2.08,1.22s3.44,2.73,4.3,4.09c0.86,1.36,0.72,4.09,0.79,5.52
			c0.07,1.43-0.43,2.51,0.14,3.51c0.57,1,0.79,2.37,0.5,5.74c-0.29,3.37,0.36,7.1,0.29,8.89c-0.07,1.79,0.29,4.81,0.14,6.24
			s-1.65,0.93-1.65,1.65s1.43,5.24,2.44,7.75c1,2.51,3.73,4.81,6.89,8.03c3.16,3.23,5.24,9.68,5.6,11.62
			c0.37,1.94-0.72,4.59-1.44,6.74c-0.6,1.81-1.66,4.08-1.99,4.75c-0.06,0.13-0.17,0.23-0.3,0.28l-6.48,2.58
			c-0.21,0.08-0.35,0.28-0.36,0.51c-0.02,1.18-0.12,4.85-0.42,6.59c-0.36,2.08,0.22,2.8,1.72,3.08c1.51,0.29,5.88,0.79,7.53,1.15
			c1.65,0.36,2.15,1.51,1.36,2.15s-4.02,0-7.6,0.07c-3.59,0.07-5.88,0.29-7.39,0.36c-1.51,0.07-2.44,0.57-3.95,0.57
			c-1.51,0-2.65-0.72-3.59-0.72s-1-1-1-1.58c0-0.57,2.37-1.15,2.51-1.58c0.14-0.43,0.22-1.58,0-2.87c-0.22-1.29-0.5-6.38-1.15-9.68
			c-0.65-3.3-1.86-4.95-3.8-6.81c-1.94-1.86-4.38-2.08-5.95-3.01c-1.18-0.7-1.52-2.73-1.61-3.7c-0.03-0.3-0.29-0.52-0.59-0.51
			l-0.76,0.03c-0.27,0.01-0.5,0.21-0.54,0.48c-0.13,0.89-0.51,2.85-1.38,3.77c-1.15,1.22-4.16,2.87-6.96,5.31
			c-2.5,2.18-5.17,5.44-5.71,6.12c-0.07,0.08-0.11,0.18-0.12,0.28c-0.07,0.53-0.29,2.33-0.41,4.08c-0.14,2.08-1.43,4.52-1.51,5.95
			c-0.03,0.65,0.34,1.19,0.75,1.58c0.34,0.32,0.18,0.89-0.28,0.97c-0.93,0.17-2.24,0.38-3.55,0.54c-2.44,0.29-2.73-0.14-5.59,0.22
			s-2.51,0.65-4.38,0.79c-1.86,0.14-2.15-0.65-2.22-1.58c-0.07-0.93,2.08-1.43,3.37-2.87c1.29-1.43,2.01-2.51,2.01-3.8
			c0-1.29,0-5.02,0.29-7.17c0.29-2.15,2.15-3.8,2.94-5.38s2.73-3.8,3.3-5.45c0.57-1.65,1.58-6.46,3.01-9.11
			c1.43-2.65,2.44-4.16,4.12-5.95c1.68-1.79,0.97-6.24,0.97-8.89c0-2.05-1.07-8.49-1.56-11.3c-0.09-0.49-0.72-0.64-1.02-0.23
			l-3.65,5.12c-0.01,0.01-0.02,0.02-0.03,0.04c-0.3,0.51-6.56,11.08-8.17,13.39c-1.65,2.37-1.58,5.24-0.86,6.74
			c0.66,1.39,3.14,3.32,3.53,3.62c0.04,0.03,0.07,0.06,0.1,0.09c0,0,1.75,0.97,1.56,1.47c-0.11,0.3-1.27,0.04-1.27,0.04
			c-0.13,0.01-0.25-0.02-0.35-0.09c-0.39-0.26-1.41-0.93-1.92-1.04c-0.01,0-0.01,0-0.02,0c-0.45-0.09-0.8,0.39-0.6,0.8
			c0.51,1.05,1.54,3.06,2.27,3.79c1,1,2.3-0.07,3.08-0.14c0.79-0.07,0.57,0.22,0.5,0.72c-0.07,0.5-2.08,1.86-2.87,2.37
			s-2.87,0.57-5.74-1c-2.87-1.58-2.73-4.02-3.87-5.81c-1.15-1.79-2.65-4.02-3.37-4.81c-0.72-0.79-0.5-3.59-0.36-6.53
			s2.73-12.05,3.95-15.35c1.22-3.3,1.15-3.08,1.72-4.59s1.36-0.86,2.15-1.36c0.79-0.5,1.36-1.94,2.15-3.3
			c0.79-1.36,6.53-6.46,8.54-7.89c2.01-1.43,5.16-5.31,6.53-6.17c1.36-0.86,3.73-2.87,5.02-3.66c1.29-0.79,2.08-0.86,2.94-0.57
			c0.86,0.29,2.51,0.07,3.01-0.43c0.3-0.3-0.06-0.95-0.41-1.43c-0.21-0.3-0.08-0.72,0.26-0.85c0.55-0.2,1.3-0.46,1.86-0.58
			c1-0.22,4.88-3.16,6.46-3.73c1.39-0.5,2.83-0.12,3.16-0.02c0.05,0.02,0.1,0.02,0.15,0.02
			C319.82,200.21,321.24,200.23,322.18,200.35z M323.04,249.99l-0.57,2.08c0,0,2.94,2.73,3.44,4.38c0.5,1.65,0.29,2.73,1.29,3.59
			c1,0.86,1.43,1.58,2.94,4.59c1.51,3.01,1.86,6.17,1.86,6.17l0.57,4.16c0,0,2.51-1.22,3.37-2.08c0.86-0.86,2.01-1.72,2.44-2.87
			c0.43-1.15,0.36-1.86,0-2.73c-0.36-0.86-2.22-3.87-3.23-4.81s-2.58-2.51-3.59-3.59c-1-1.08-2.44-2.44-3.8-3.37
			c-1.36-0.93-2.15-2.01-2.87-3.16C324.18,251.21,323.04,249.99,323.04,249.99z"/>
		<path id="hombre" class="st9" d="M253.67,136.66c0.63,0.49,0.85,1.35,1.48,2.12c0.77,0.93,3.56,1.57,5.73,2.31
			c2.18,0.74,5.77,2.24,7.66,3.27c1.89,1.02,3.81,2.53,4.81,7.62c0.99,5.09,1.22,7.46,1.41,9.64c0.19,2.18,0.22,4.13,0.22,4.13
			s-0.22,0.07-0.63,0.18c0.27,1.71,0.71,4.6,1.05,6.94c0.51,3.56,0.16,16.85-0.48,22.3c-0.64,5.45-1.22,6.92-1.73,8.2
			c-0.51,1.28-1.09,2.43-1.22,4.23c-0.13,1.79-0.19,2.05-1.41,3.91c-1.22,1.86-0.54,2.43-2.37,4.23c-0.63,0.62-1.27,1.14-1.83,1.57
			v1.02c0,2.69,0.19,13.04,0.23,16.27c0.03,3.24-0.1,4.32,0.35,5.83c0.45,1.51-0.06,2.66-0.06,2.88c0,0.22,0.54,0.67,0.61,2.27
			c0.06,1.6,0.03,2.5,0.06,3.17c0.03,0.67-0.67,11.82-0.48,14.26c0.19,2.43,1.28,3.08,0.8,4.29c-0.48,1.22-1.79,1.95-1.38,3.56
			c0.42,1.6,1.99,1.67,1.7,2.53c-0.29,0.86,0.26,1.89-0.83,2.47c-1.09,0.58-1.12,1.38-1.12,1.38s1.28,1.28,2.08,3.4
			c0.8,2.11,0.48,2.53,1.47,3.3c0.99,0.77,3.46,1.92,3.81,3.3c0.35,1.38,0.16,2.92-0.13,3.46c-0.29,0.54-3.01,1.18-4.52,1.25
			c-1.51,0.06-3.56-1.73-4.77-2.53c-1.22-0.8-2.79-2.79-4-3.88c-1.22-1.09-1.67-2.21-1.86-3.72c-0.19-1.51-0.19-2.05,0-2.98
			c0.19-0.93,0.26-1.6,0.26-1.6s-1.28-0.29-1.44-1.57c-0.16-1.28-0.48-2.88-0.22-4.61c0.26-1.73-0.51-2.05-0.51-4.55
			c0-2.5-0.58-2.43-0.26-4.81c0.32-2.37-0.45-10.44-0.64-12.94c-0.19-2.5-0.58-3.08-0.45-4.93c0.13-1.86-0.38-2.24-0.83-4.61
			c-0.45-2.37,0.13-2.18-0.45-5.89c-0.58-3.72-1.99-9.42-2.88-12.88c-0.9-3.46-1.35-3.91-1.67-5.13c-0.32-1.22-0.64-2.18-0.64-2.18
			s-1.09,2.56-1.54,6.66c-0.45,4.1-0.26,6.34-0.64,10.32c-0.39,3.97-0.96,7.3-1.03,9.74c-0.06,2.43-0.29,1.99-0.67,3.62
			c-0.38,1.63-0.35,2.92-0.1,4.68c0.26,1.76,0.1,2.05,0.1,3.81c0,1.76,0.03,7.4-0.16,10.48c-0.19,3.08-0.7,3.46-0.38,5.06
			c0.32,1.6,1.09,3.33,0.45,4.36c-0.64,1.03-0.38,1.6-0.7,2.69c-0.32,1.09-0.58,1.22-0.58,1.22s0.51,1.22,0.45,3.52
			c-0.06,2.31,0.38,3.97,0.26,4.93c-0.13,0.96-1.86,1.67-2.95,3.01c-1.09,1.35-3.08,3.72-5.96,5.19c-2.88,1.47-6.22,1.09-7.5,0.58
			c-1.28-0.51-1.28-3.01-0.9-3.91c0.38-0.9,1.6-1.86,2.95-2.82c1.35-0.96,1.54-2.37,2.76-3.59c1.22-1.22,1.02-2.69,1.67-3.97
			c0.64-1.28,0.77-2.24,0.64-3.27c-0.13-1.03-1.47-1.6-1.15-4.04c0.32-2.43,0.19-3.4,0.19-4.29c0-0.9-0.77-7.82-1.09-12.11
			c-0.32-4.29-1.35-6.34-0.77-8.33c0.58-1.99,0.96-3.4,0.45-7.11c-0.51-3.72-0.77-6.41-0.83-9.87c-0.06-3.46-0.64-6.86-0.64-9.55
			c0-0.24,0-0.52,0-0.84c-0.73-0.67-1.48-1.57-2.02-2.72c-1.41-3.01-2.5-4.74-3.2-7.75c-0.7-3.01-1.99-3.84-2.24-6.34
			c-0.26-2.5-0.96-5.45-0.96-7.24c0-1.79-0.19-9.55-0.19-14.86c0-3.58,0.32-7.07,0.53-8.97c-0.45-0.06-0.7-0.1-0.7-0.1
			s-0.16-4.07,0-7.18c0.16-3.11,0.7-10.28,1.54-11.73c0.83-1.44,1.18-1.92,1.18-1.92s0.32-1.44,3.65-3.4
			c3.33-1.95,5.32-3.56,7.63-4.71c2.31-1.15,2.56-0.61,3.04-2.11c0.41-1.27,0.42-2.45,1.46-3.02l-0.06-1.36c0,0-0.25-0.41-0.51-1.11
			c-0.26-0.7-0.44-2.4-0.44-2.4s-0.91-0.02-1.2-0.65c-0.29-0.63-0.68-2.68-0.7-4.43c-0.02-1.75,0.55-1.9,0.55-1.9
			s-0.05-0.97-0.11-2.19c-0.06-1.23-0.42-4.57-0.02-6.92c0.4-2.35,3.22-4.1,8.53-3.92c5.31,0.19,6.11,4.55,6.11,4.55
			s1.36,0.61,1.47,2.16c0.11,1.55,0.44,4.99,0.44,4.99s0.89,0.31,1.04,1.44c0.15,1.12,0.32,3.18-0.16,4.6
			c-0.48,1.41-1.37,1.75-1.37,1.75s-0.26,0.56-0.51,1.45c-0.25,0.88-0.1,1.78-0.04,3.01L253.67,136.66z M231.09,204.28
			c0.09-2.68,0.27-5.9,0.27-8.67c0-3.72,0.26-15.83,0.26-19.03c0-0.36-0.01-0.75-0.02-1.14c-0.35,2.71-0.75,5.8-1.1,8.09
			c-0.77,5.13-1.09,8.91-1.15,12.81c-0.06,3.91-0.32,5.06,0.45,6.41C230.12,203.34,230.61,203.82,231.09,204.28L231.09,204.28z
			 M265.57,170.84l0.35,9.82c0.13,3.65,0.26,6.6,0.26,9.61c0,2.34,0.27,8.14,0.33,13.04c0.25-0.17,0.46-0.35,0.64-0.51
			c1.06-0.99,1.25-1.25,1.41-1.7c0.16-0.45,0-7.82-0.45-13.78C267.77,182.79,266.5,175.92,265.57,170.84z"/>
		<g>
			<text transform="matrix(1 0 0 1 351.0297 309.9775)" class="st1 st2 st3">Hoolock</text>
		</g>
		<g>
			<text transform="matrix(1 0 0 1 284.7709 309.9775)" class="st1 st6 st3">Siamang</text>
		</g>
		<g>
			<text transform="matrix(1 0 0 1 223.6303 309.9775)" class="st1 st2 st3">Hombre</text>
		</g>
		<g>
			<text transform="matrix(1 0 0 1 413.0844 309.9775)" class="st1 st2 st3">Hylobates</text>
		</g>
		<g>
			<text transform="matrix(1 0 0 1 471.9886 309.9775)" class="st1 st2 st3">Nomascus</text>
		</g>
	</g>
</g>
<g id="manos_comparacion">
	<g>
		<rect x="179.72" y="560.27" class="st0" width="76.68" height="16.51"/>
		<text transform="matrix(1 0 0 1 186.3379 568.6637)" class="st1 st2 st10">Mano humana</text>
	</g>
	<g>
		<rect x="288.57" y="559.58" class="st0" width="76.68" height="16.51"/>
		<text transform="matrix(1 0 0 1 314.8159 567.9772)" class="st1 st2 st10">Mano </text>
	</g>
	<g>
		<rect x="391.92" y="559.35" class="st0" width="76.68" height="16.51"/>
		<text transform="matrix(1 0 0 1 423.0899 567.7448)" class="st1 st2 st10">Pie</text>
	</g>
	<g>
		<rect x="258.05" y="577.88" class="st0" width="237.51" height="39.92"/>
		<text transform="matrix(1 0 0 1 269.6875 586.277)"><tspan x="0" y="0" class="st1 st2 st10">Único primate dentro de los gibones que posee </tspan><tspan x="-0.7" y="14.39" class="st1 st2 st10">pulgares opuestos funcionales, tanto en manos </tspan><tspan x="75.35" y="28.77" class="st1 st2 st10">como en pies.</tspan></text>
	</g>
	<g>
		<rect x="471.52" y="370.22" class="st0" width="106.26" height="78.84"/>
		<text transform="matrix(1 0 0 1 474.6797 378.6129)"><tspan x="0" y="0" class="st1 st2 st10">Membrana interdigital </tspan><tspan x="1.85" y="14.39" class="st1 st2 st10">entre dedos II y III (se </tspan><tspan x="-1.37" y="28.77" class="st1 st2 st10">desconoce su función)</tspan></text>
	</g>
	<polyline class="st11" points="283.37,564.93 283.37,572.84 461.28,572.84 461.28,564.93 	"/>
	<g id="humano">
		<g>
			<path class="st12" d="M197.55,553.16c0,0,1.3-5.63,1.08-11.04c-0.22-5.41-3.03-13.2-3.03-13.2s-10.6-10.82-12.55-15.15
				c-1.95-4.33-3.9-7.79-4.76-12.98c-0.87-5.19-4.76-12.77-4.76-15.15s2.31-12.06,2.11-16.74c-0.2-4.68,0.61-9.15,5.69-6.91
				c5.08,2.24,7.73,6.3,7.52,9.96c-0.2,3.66-1.42,7.73-1.63,9.76s1.83,5.9,2.44,8.95s-0.41,1.59,1.42,4.96
				c1.83,3.37,3.25,3.37,3.86,1.75c0.61-1.63,0.81-31.52,0.81-31.52s1.02-14.44,1.02-16.88c0-2.44,0.41-11.39,0-14.84
				c-0.41-3.46,0.41-13.84,0.41-13.84s0.61-5.07,5.49-5.48c6.29-0.52,5.08,9.56,5.08,9.56s-1.22,5.08-1.22,7.93
				c0,2.85,0.61,9.35,0.41,11.39c-0.2,2.03,0,2.64,0,8.13s-0.41,9.23,0.61,9.09c1.02-0.14,3.86,0.26,3.46-2.38
				c-0.41-2.64-0.41-16.06-0.81-18.5c-0.41-2.44,0.2-18.5,0.61-20.33c0.41-1.83,0.41-13.01,0.41-13.01s1.22-5.9,5.51-5.9
				c5.88,0,6.9,5.49,6.9,5.49s-0.41,8.34-1.42,11.79c-1.02,3.46,0.2,7.73,0,12.2c-0.2,4.47-0.2,8.13-0.41,10.78s0.2,17.08,0.2,17.08
				s1.42,1.63,2.24,0.61c0.81-1.02,2.03-12.4,1.83-17.89c-0.2-5.49,0.81-18.91,0.2-20.94s-0.61-7.12-0.61-9.15
				c0-2.03,0.81-7.93,5.49-8.13c5.9-0.26,6.1,7.93,6.1,7.93s0.2,5.29,0.2,8.74c0,3.46,0.61,8.34,0.61,11.18
				c0,2.85-0.81,7.52-0.81,10.37c0,2.85,0.61,7.49,0.61,9.74c0,2.25-0.81,9.05,0,10.33c0.81,1.28,3.66,3.11,4.27,1.89
				s1.14-5.49,1.49-13.01c0.35-7.52,0.89-19.76,0.89-19.76s-0.89-9.94,5.41-9.74c6.65,0.22,5.63,7.14,5.63,7.14
				s-0.65,9.95-1.08,13.2c-0.43,3.25-0.65,26.4-0.22,29c0.43,2.6,2.38,6.92,3.03,12.12s3.03,14.5,2.6,22.51
				c-0.43,8.01-1.73,18.15-5.63,24.64c-3.9,6.49-3.25,7.17-4.98,12.8c-1.73,5.63-1.51,11.47-1.51,11.47"/>
			<path class="st12" d="M197.55,553.16"/>
			<path class="st12" d="M247.75,553.16"/>
			<path class="st12" d="M255.14,484.56c0,0-14.84,0.68-23.39-1.59s-11.36-5.12-15.03-8.37s-8.15-9.35-8.15-9.35"/>
			<path class="st12" d="M198,480.29c0,0,18.5,3.25,27.86,9.15c9.35,5.9,16.27,10.78,16.27,10.78"/>
			<path class="st12" d="M198,480.29c0,0,18.72,6.91,25.83,15.34c5.29,6.27,8.13,16.59,8.03,22.89c-0.1,6.3-1.32,10.37-1.32,10.37"
				/>
			<path class="st12" d="M187.22,481.72c0,0-1.02,2.83-3.25,2.94s-5.29,0-5.29,0"/>
			<path class="st12" d="M189.91,492.9c0,0-1.26,4.48-4.51,6.31"/>
			<path class="st12" d="M192.2,497.33c0,0-0.82,1.06-2.29,6.14"/>
			<path class="st12" d="M237.25,440.84c0,0-2.43,0.61-5.39,0"/>
			<path class="st12" d="M237.45,419.29c0,0-0.3,1.83-2.9,1.83s-4.91,0-4.91,0"/>
			<path class="st12" d="M255,434.98c0,0-1.48,1.18-3.52,1.18c-2.03,0-2.03,0-2.03,0"/>
			<path class="st12" d="M254.09,450.59c0,0-1.18,1.03-3.22,0.83"/>
			<path class="st12" d="M254.24,469.63c0,0-0.53-0.16-4.8-1.97c-4.27-1.81-4.27-1.81-4.27-1.81"/>
			<path class="st12" d="M221.79,441.05c0,0-2.41,0.34-5.07,0.07c-2.66-0.27-2.66-0.27-2.66-0.27"/>
			<path class="st12" d="M221.79,420.2c0,0-2.21,1.32-5.07,0.92c-2.86-0.41-2.86-0.41-2.86-0.41"/>
			<path class="st12" d="M206.63,434.98c0,0,0.32,0.44-2.33,0c-2.64-0.44-3.86,0-3.86,0"/>
			<path class="st12" d="M206.64,447.15c0,0-1.02,2.44-3.1,2.44s-3.1,0-3.1,0"/>
			<path class="st12" d="M204.71,461.99c0,0-2.44,0.81-4.27,2.24"/>
			<path class="st12" d="M220.06,459.96c0,0-0.27,0.69-3.34,0.96s-3.07,0.26-3.07,0.26"/>
			<path class="st12" d="M235.48,459.96c0,0-1.89,0.81-4.74,0s-2.85-0.81-2.85-0.81"/>
			<path class="st12" d="M249.95,539.29c0,0-1.11,1.12-6.2,1.35c-7.61,0.34-14.5-0.83-11.89-0.76"/>
			<path class="st12" d="M211.62,536.82c0,0-6.71-1.83-10.17-4.07s-5.86-3.83-5.86-3.83"/>
			<path class="st12" d="M177.2,461.99c0,0,0.99,1.86,1.48,5.75c0.49,3.89,0,5.74,0,5.74h-3.33"/>
		</g>
	</g>
	<g id="pata_00000097485459395062389550000017279478881578334886_">
		<g id="pata">
			<g>
				<path class="st13" d="M418.67,439.31c0,0-1,1.5-3.24,1.91c-2.24,0.42-4.68,0-4.68,0"/>
				<polygon class="st7" points="417.77,427.27 421.18,426.43 421.78,429.26 421.88,433.01 421.18,438.13 420.88,440.36 
					421.18,446.37 421.12,450.11 420.06,453.18 419.3,453.55 418.67,453.23 419.3,448.75 418.67,444.47 417.69,441.91 
					417.69,440.75 418.67,437.78 417.3,434.72 				"/>
				<path class="st13" d="M384.81,456.6c0,5.1-1.58,8.23-6.02,8.23s-8.04-4.13-8.04-9.23s3.6-9.23,8.04-9.23
					S384.81,451.5,384.81,456.6z"/>
				<path class="st13" d="M370.89,457.34c0,0-1.61,16.83-1.61,19.03c0,2.2,1.05,8.77,5.28,11.7c4.22,2.92,19.08,13.88,22.49,17.78
					c3.41,3.9,10.71,15.05,12.91,21.41c2.19,6.36,3.48,17.56,10.63,21.21c7.15,3.65,9.08,3.94,12.99,3.68
					c3.17-0.21,9.01-2.95,11.2-7.58c2.19-4.63,0.97-19.48,0.97-23.13s-2.29-21.05,1.9-31.95c4.19-10.91,3.53-11.54,4.12-15.07
					s0.39-5.64,0-7.19s0.46-4.74,0.46-8.59s-0.34-4.66-0.46-7.2s-0.25-3.61,0.46-5.45c0.7-1.85-0.02-4.13-0.08-5.54
					s0.24-3.36,0.03-4.91"/>
				<ellipse class="st13" cx="412.54" cy="420.26" rx="5.14" ry="6.37"/>
				<ellipse class="st13" cx="426.32" cy="417.87" rx="5.14" ry="6.37"/>
				<ellipse class="st13" cx="438.44" cy="419.89" rx="5.14" ry="5.7"/>
				<ellipse class="st13" cx="447.03" cy="435.53" rx="5.14" ry="5.7"/>
				<path class="st13" d="M383.19,463.32c0,0,4.05,1.67,4.92,4.29c1.35,4.05-1.28,6.94-1.28,6.94s4.53-2.26,6.68-1.55
					c4.05,1.35,3.6,5.49,3.6,5.49s4.79-0.56,6.2,1.69c1.41,2.26,1.41,2.26,1.41,2.26s-0.1-0.18,0.93-1.34
					c1.05-1.19-1.53-3.91-1.49-6.69c0.05-3.24,0.14-7.75,0.14-7.75s-1.08-2.09-0.99-4.37c0.22-5.33,3.87-7.77,3.69-8.17
					c-0.56-1.22-0.29-3.49,0.4-5.37c0.99-2.67,0.56-6.96,0-10.16c-0.28-1.62-0.99-5.65-0.7-8.1s0.43-1.63,0.7-4.9
					c0.28-3.27,0-5.33,0-5.33"/>
				<path class="st13" d="M417.3,422.69c0,0-0.03,1.4,0.39,3.94c0.42,2.54-0.28,6.88,0,8.73c0.28,1.85,1.55,2.69,0.99,3.96
					c-0.56,1.27-1.27,0.82-0.99,2.59c0.28,1.78,1.53,4.3,1.61,6.85c0.08,2.54-1.49,5.08,0,4.8c1.49-0.28,1.84-2.12,1.88-4.8
					s-0.18-5.38,0-6.85c0.18-1.47-0.87-1.01,0-3.78c0.88-2.76,0.74-6.24,0.6-8.87c-0.14-2.63-1.61-4.15-0.6-5.87
					c1.01-1.73,0-5.51,0-5.51"/>
				<path class="st13" d="M430.66,421.28c0,0-0.13,0.74,0,4.31s0.59,8.23-0.06,11.47c-0.65,3.24-0.93,6-0.93,8.43
					c0,2.43,0.86,7.12,1.28,8.09c0.42,0.97,1.12,1.42,1.12,1.42s-0.56-5.39,0-7.65c0.56-2.26,1.34-2.7,1.23-4.17
					s-0.3-4.85,0.01-5.98c0.31-1.13-0.73-4.37,0-6.06c0.73-1.69,1.05-3.6,1.15-5.55s-1.16-5.7-1.16-5.7"/>
				<path class="st13" d="M441.88,424.12c0,0-1.08,4.34-0.8,7.02s0.89,5.07,0.38,8.88s-0.47,5.64-0.42,8.18
					c0.05,2.54,1.74,6.6,1.74,8.3s0.35-3.51,0.81-6.33c0.46-2.82-0.67-5.24-0.67-6.99s-0.17-4.49-0.17-4.49"/>
				<path class="st13" d="M376.39,481.88c0,0,2.82-3.24,4.65-4.37c1.83-1.13,5.79-2.96,5.79-2.96s0.84,2.42-1.28,6.36
					c-2.11,3.93-3.38,5.82-3.38,5.82"/>
				<path class="st13" d="M388.37,489.08"/>
				<path class="st13" d="M397.11,478.5c0,0-2.11,5.07-4.23,7.61c-2.11,2.54-4.51,2.97-4.51,2.97"/>
				<path class="st13" d="M404.72,482.45c0,0,2.11,3.06,3.66,10.83c1.55,7.77,2.37,17.64,2.37,17.64"/>
				<path class="st13" d="M405.65,481.1c0,0,13.49,0,14.94,20.54c0.27,3.83-2.79,6.45-2.79,6.45"/>
				<path class="st13" d="M404.72,513.46c0,0,4.03,0.03,10.29-3.52c6.54-3.71,12.19-8.96,12.22-8.59"/>
				<path class="st13" d="M438.69,482.45c0,0-4.93,5.92-6.62,13.11c-1.69,7.19-2.4,14.66-2.4,14.66"/>
				<path class="st13" d="M406.69,516.28c0,0,9.73-5.92,17.06-5.36c7.33,0.56,11.84,3.24,13.67,4.09c1.83,0.85,3.95,0.99,4.93,0.7"
					/>
				<path class="st13" d="M412.39,483.8c0,0,6.45,4.31,14.03,5.28c7.58,0.97,12.26,1.12,12.26,1.12"/>
				<path class="st13" d="M404.3,466.66c0,0,8.88-1.13,20.23,3.52c11.35,4.65,17.97,9.92,19.8,10.46"/>
				<path class="st13" d="M407,454.12c0,0,7.41-1.41,12.14,0c4.73,1.41,7.85,1.8,9.54,6.61c1.69,4.81,0.99,6.5,0.99,6.5"/>
				<path class="st13" d="M441.88,470.82c0,0,2.47-7.53-2.5-10.63c-5.41-3.37-10.8-0.67-10.8-0.67"/>
				<path class="st13" d="M417.69,435.35c0,0-1.3,0.12-4.26,0.37s-3.73,0.86-3.73,0.86"/>
				<path class="st13" d="M430.6,437.06c0,0-1-1.58-2.8-1.53c-1.8,0.05-4.12,0.45-4.12,0.45"/>
				<path class="st13" d="M421.18,441.91c0,0,3.77,0.42,5.99-0.68c2.22-1.1,2.87-0.86,2.87-0.86"/>
				<path class="st13" d="M433.3,443.18c0,0,2.01,1.42,3.59,0.98c1.59-0.44,2.49-2.17,2.49-2.17"/>
				<path class="st13" d="M433.31,437.2c0,0,2.74,1.44,4.22,1.13c1.48-0.32,1.86-0.88,1.86-0.88"/>
				<path class="st13" d="M409.22,415.4c0,0,4.27-4.36,5.49-3.89c1.25,0.47,1.95,4.96,1.95,4.96"/>
				<path class="st13" d="M424.31,412.01c0,0,2.46-3.22,3.59-2.97c1.2,0.26,2.13,4.44,2.13,4.44"/>
				<path class="st13" d="M435.92,414.92c0,0,2.25-3.56,3.46-3.42c1.46,0.16,3.16,4.96,3.16,4.96"/>
				<path class="st13" d="M444.33,430.69c0,0,2.01-4.14,3.32-4.06c1.6,0.1,3.44,5.41,3.44,5.41"/>
			</g>
		</g>
		<g>
			<text transform="matrix(1 0 0 1 376.541 442.6979)" class="st1 st2 st14">I</text>
		</g>
		<g>
			<text transform="matrix(1 0 0 1 410.4756 406.3932)" class="st1 st2 st14">II</text>
		</g>
		<g>
			<text transform="matrix(1 0 0 1 423.4346 406.3932)" class="st1 st2 st14">III</text>
		</g>
		<g>
			<text transform="matrix(1 0 0 1 435.4961 406.3932)" class="st1 st2 st14">IV</text>
		</g>
		<g>
			<text transform="matrix(1 0 0 1 448.3067 423.2242)" class="st1 st2 st14">V</text>
		</g>
	</g>
	<g id="siamang_mano">
		<path class="st15" d="M309.39,448.03c0,0-2.56-2.7,0-7.67c2.56-4.97,4.4-6.96,5.82-6.25c1.42,0.71,3.41,9.09,2.13,11.65
			c-1.28,2.56-0.99,13.49-1.28,14.63c-0.28,1.14,0.28,8.66,0.14,9.52c-0.14,0.85,1.1,12.78,1.55,13.92
			c0.44,1.14,1.01-11.5,1.44-12.07c0.43-0.57-0.28-9.52,0-10.08c0.28-0.57,2.5-15.15,3.12-17.61c0.57-2.25,0.42-1.56,0-2.84
			c-0.26-0.79,0.23-4.83,0.61-5.54c0.38-0.71,2.23-5.26,4.22-5.82s3.55,10.37,2.13,12.64c-1.42,2.27-1.28,18.46-1.28,18.89
			c0,0.43-0.57,8.95-0.57,8.95s0,14.49,0.99,15.34c0.99,0.85,1.52-8.24,1.4-10.08c-0.12-1.85,0.02-9.66,0.59-13.78
			s1.7-11.5,1.7-12.22s-1.28-2.41-0.71-5.26s3.27-6.39,3.98-6.53s3.98,4.83,3.83,7.24s-0.57,5.97-0.85,6.53
			c-0.28,0.57-0.28,15.91-0.28,16.76c0,0.85,0.58,16.9,1.14,18.32c0.56,1.42,1.27,3.69,1.42,4.4c0.14,0.71-1.14-5.68-0.71-8.38
			c0.43-2.7,1.42-15.06,1.56-15.91c0.14-0.85-1.7-4.12-0.57-7.24c1.14-3.12,2.7-3.98,3.41-3.27s2.84,3.69,2.56,6.11
			c-0.28,2.41-0.09,14.69,0.03,15.65c0.12,0.97,0.31,3.95,0,4.37s0.36,12.36,0.17,13.49s-2.18,15.62-2.32,16.33
			c-0.14,0.71-1.28,7.24-1.56,8.95c-0.28,1.7,0.43,12.5,0.43,13.49s-0.02,10.81-0.43,13.07c-0.29,1.63-2.31,4.4-4.26,5.11
			c-2.55,0.93-7.81-1.85-9.8-2.27c-1.99-0.43-4.83,1.85-8.24,1.56c-3.41-0.28-8.24-4.69-14.35-11.79
			c-6.11-7.1-16.33-19.17-16.62-21.16c-0.28-1.99,0.43-8.1,0-9.09c-0.43-0.99-1.85-4.26-1.42-6.68s4.69-1.99,5.54-1.28
			c0.85,0.71,3.83,3.98,3.55,7.1c-0.28,3.12-0.71,2.27-0.28,3.12c0.43,0.85,4.26,5.54,4.12,7.1c-0.14,1.56,2.98,1.28,3.83,2.56
			c0.85,1.28,6.11,2.27,6.68,3.98c0.57,1.7,3.41,0.28,4.55,1.42s-2.7-7.53-2.84-8.38s-4.26-10.51-4.12-11.36
			c0.14-0.85-2.56-6.82-2.56-8.81c0-1.99,0.28-10.51,0.99-12.22c0.71-1.7-2.41-13.21-1.99-15.62c0.43-2.41,0.71-8.95,0.99-9.37
			C307.26,461.24,307.54,450.87,309.39,448.03z"/>
		<path class="st15" d="M309.39,448.03c1.8,1.07,2.56,1.07,4.26,0.88c1.7-0.19,3.27-1.77,3.27-1.77"/>
		<path class="st15" d="M322.88,442.64c0,0,0.52,2.11,2.55,1.88c2.03-0.23,3.84-2.03,3.84-2.03"/>
		<path class="st15" d="M332,450.71c0,0,0.78,1.95,2.25,2.18s3.94,0.19,4.03-0.55"/>
		<path class="st15" d="M341.49,466.78c0,0,1.24,1.24,2.25,1.24c1.02,0,3.01-1.81,3.01-1.81"/>
		<path class="st15" d="M308.26,461.7c1.24,0.34,4.97,0.23,5.99,0"/>
		<path class="st15" d="M320.92,462.45c1.24,0.34,4.97,0.23,5.99,0"/>
		<path class="st15" d="M330.68,476.45c1.24,0.34,4.97,0.23,5.99,0"/>
		<path class="st15" d="M320.92,471.35c1.24,0.34,4.97,0.23,5.99,0"/>
		<path class="st15" d="M341.13,482.39c1.02,0.37,0.47,0.2,5.22,0"/>
		<path class="st15" d="M340.76,478.7c1.24,0.34,4.97,0.23,5.99,0"/>
		<path class="st15" d="M331.17,462.45c1.24,0.34,4.97,0.23,5.99,0"/>
		<path class="st15" d="M307.17,470.66c1.75,0.19,7.01,0.13,8.44,0"/>
		<path class="st15" d="M309.39,487.51c3.32-1.25,8.12-1.46,8.38-1.18c0.94,1.01,1.58,2.85,1.04,4.36c-0.69,1.94-3.5,7.07-3.2,7.49"
			/>
		<path class="st15" d="M317.78,486.34c3.88-0.96,10.19,0.9,10.19,0.9s1.45-0.14,6.2,1.94c4.75,2.08,7.17,4.06,7.58,4.43
			c0.43,0.38,2.31,1.53,3.14,2.91"/>
		<path class="st15" d="M328.74,487.31c0,0-2.13,11.15,0,14.76"/>
		<path class="st15" d="M311.26,507.34c0,0,2.96-0.83,7.75,0c4.79,0.83,17.55,4.71,20.32,5.13"/>
		<path class="st15" d="M326.91,505.12c0,0,1.32,10.12,2.36,11.37"/>
		<path class="st15" d="M320.06,517.74c0,0,17.64,3.61,19.27,3.48"/>
		<path class="st15" d="M342.1,517.74c0,0-7.84,13.17-8.42,14.97c-0.59,1.8-4.02,11.23-2.99,14c1.02,2.77,3.48,5.16,3.48,5.16"/>
		<path class="st15" d="M341.49,532.57c0,0-15.26,2.91-16.2,3.88"/>
		<path class="st15" d="M342.66,537.84c0,0-21.2,7.9-24.88,11.78"/>
		<path class="st15" d="M316.49,527.43c0,0,6.29,7.49,7.43,10.4c1.13,2.91,3.88,7.49,2.99,10.4"/>
		<path class="st15" d="M297.32,512.38c0,0-0.2,0.83-2.11,0.92c-1.91,0.09-3.65-0.92-3.65-0.92"/>
		<path class="st15" d="M302.26,520.59c0,0-2.87,3.28-3.96,3.55c-1.09,0.27-3.08-0.73-3.86-1.64c-0.78-0.91-1.88-1.64-2.06-3.46
			c-0.18-1.82-0.09-3.65,0.27-3.83"/>
		<path class="st15" d="M306.51,523.6c0,0-0.91,2.01-2.01,3.83c-1.09,1.82-1.1,3.28-2.24,3.19c-1.13-0.09-1.04-0.18-2.41-1.64
			c-1.37-1.46-1.91-2.83-1.91-2.83l-0.33-0.91"/>
		<path class="st15" d="M313.08,526.88c-0.11,0.46,0.62,2.01-0.84,5.29c-1.46,3.28-3.28,4.28-3.28,4.28"/>
		<path class="st15" d="M316.48,436.28"/>
		<path class="st15" d="M312.41,435.47"/>
		<path class="st15" d="M326.08,431.47"/>
		<path class="st15" d="M325.35,431.77c-0.16-0.38,2.24-1.92,3.42,0.2"/>
		<path class="st15" d="M333.69,439.72c-0.16-0.38,2.24-1.92,3.42,0.2"/>
		<path class="st15" d="M342.05,457.8c-0.16-0.38,2.24-1.92,3.42,0.2"/>
		<path class="st15" d="M312.41,435.47c-0.16-0.38,2.73-1.73,3.91,0.39"/>
	</g>
	<line id="linea_negra_base" class="st16" x1="174.99" y1="553.04" x2="474.79" y2="553.04"/>
	<g id="linea_verde_membrana">
		<g>
			<polyline class="st17" points="478.94,382.82 419.69,382.82 419.69,396.38 			"/>
			<g>
				<polygon class="st7" points="417.91,395.03 419.69,395.78 421.47,395.03 419.69,399.25 				"/>
			</g>
		</g>
	</g>
</g>
</svg>
