<?xml version="1.0" encoding="utf-8"?>
<!-- Generator: Adobe Illustrator 26.0.1, SVG Export Plug-In . SVG Version: 6.00 Build 0)  -->
<svg version="1.1" id="Capa_1" xmlns="http://www.w3.org/2000/svg" xmlns:xlink="http://www.w3.org/1999/xlink" x="0px" y="0px"
	 viewBox="0 0 806.94 612" style="enable-background:new 0 0 806.94 612;" xml:space="preserve">
<style type="text/css">
	.st0{fill:#E1EEC0;}
	.st1{fill:#95C11F;}
	.st2{fill:#1E1E1C;}
	.st3{font-family:'BarlowSemiCondensed-Light';}
	.st4{font-size:19.6902px;}
	.st5{fill:none;stroke:#95C11F;stroke-width:0.5;stroke-miterlimit:10;}
	.st6{fill:none;}
	.st7{font-family:'BarlowSemiCondensed-MediumItalic';}
	.st8{fill:none;stroke:#95C11F;stroke-width:0.5;stroke-miterlimit:10;stroke-dasharray:0.924,0.924;}
	.st9{font-family:'BarlowSemiCondensed-Medium';}
</style>
<rect x="384.43" y="89.12" class="st0" width="31.44" height="208.34"/>
<g>
	<circle class="st1" cx="399.67" cy="257.12" r="5.05"/>
	<circle class="st1" cx="503.99" cy="324.14" r="5.05"/>
	<circle class="st1" cx="303.47" cy="324.14" r="5.05"/>
	<g>
		<text transform="matrix(1 0 0 1 343.0527 280.3325)" class="st2 st3 st4">Dos Subespecies</text>
	</g>
	<line class="st5" x1="399.46" y1="302.13" x2="399.46" y2="286.38"/>
	<line class="st5" x1="399.67" y1="261.6" x2="399.67" y2="245.85"/>
	<circle class="st1" cx="399.67" cy="208.91" r="5.05"/>
	<line class="st5" x1="399.67" y1="211.74" x2="399.67" y2="195.98"/>
	<circle class="st1" cx="399.67" cy="160.02" r="5.05"/>
	<line class="st5" x1="399.67" y1="162.85" x2="399.67" y2="147.1"/>
	<circle class="st1" cx="399.67" cy="107.29" r="5.05"/>
	<line class="st5" x1="399.67" y1="110.12" x2="399.67" y2="94.37"/>
	<g>
	</g>
	<g>
	</g>
	<g>
		<rect x="175.59" y="336.89" class="st6" width="223.87" height="125.91"/>
		<text transform="matrix(1 0 0 1 185.9136 353.6294)"><tspan x="0" y="0" class="st2 st7 st4">Symphalangus syndactylus </tspan><tspan x="56.8" y="23.63" class="st2 st7 st4">syndactylus</tspan><tspan x="28.54" y="49.88" class="st2 st3 st4">(habita en Sumatra)</tspan></text>
	</g>
	<g>
		<rect x="403.47" y="336.89" class="st6" width="227.69" height="125.91"/>
		<text transform="matrix(1 0 0 1 415.707 353.6294)"><tspan x="0" y="0" class="st2 st7 st4">Symphalangus syndactylus </tspan><tspan x="59.21" y="23.63" class="st2 st7 st4">continentis</tspan><tspan x="32.84" y="49.88" class="st2 st3 st4">(habita en Malasia)</tspan></text>
	</g>
	<polyline class="st5" points="303.47,321.38 303.47,302.13 503.99,302.13 503.99,324.14 	"/>
	<g>
		<rect x="327.56" y="444.8" class="st6" width="151.83" height="66.73"/>
		<text transform="matrix(1 0 0 1 334.6958 461.5348)"><tspan x="0" y="0" class="st2 st3 st4">Se diferencian por </tspan><tspan x="5.56" y="23.63" class="st2 st3 st4">el lugar en el que </tspan><tspan x="40.53" y="47.26" class="st2 st3 st4">habitan</tspan></text>
	</g>
	<polyline class="st8" points="338.24,425.77 338.24,435.06 476.48,435.06 476.48,425.77 	"/>
	<text transform="matrix(1 0 0 1 257.1835 237.0073)"><tspan x="0" y="0" class="st2 st3 st4">Especie:</tspan><tspan x="64.78" y="0" class="st2 st9 st4"> </tspan><tspan x="68.72" y="0" class="st2 st7 st4">Symphalangus syndactylus</tspan></text>
	<text transform="matrix(1 0 0 1 319.2968 185.981)"><tspan x="0" y="0" class="st2 st3 st4">Género: </tspan><tspan x="62.79" y="0" class="st2 st7 st4"> Symphalangus</tspan></text>
	<text transform="matrix(1 0 0 1 329.5644 134.7837)"><tspan x="0" y="0" class="st2 st3 st4">Familia:</tspan><tspan x="59.6" y="0" class="st2 st9 st4">  Hylobatidae</tspan></text>
	<text transform="matrix(1 0 0 1 308.7617 86.9028)"><tspan x="0" y="0" class="st2 st3 st4">Superfamilia: </tspan><tspan x="104.38" y="0" class="st2 st9 st4"> Hominoidea</tspan></text>
</g>
</svg>
